<svg xmlns="http://www.w3.org/2000/svg" height="1306.74951171875" width="414.225" viewBox="-1.0717968940734863 -1254.74951171875 414.225 1306.74951171875"><g height="1204.74951171875" width="262.1435852050781"><g class="layer links"><g class="link"><path fill="#3c3f44ff" d="M 134.0102999566398 -1094.7734998473247 C 134.0102999566398 -1072.3265360928465 134.0102999566398 -1072.3265360928465 134.0102999566398 -1044.7734998473247 L 125.98970004336019 -1044.7734998473247 C 125.98970004336019 -1067.220463601803 125.98970004336019 -1067.220463601803 125.98970004336019 -1094.7734998473247 Z"/><text class="text-[12px] font-bold" fill="#f5f6f6ff" x="130" y="-1068.7734998473247" text-anchor="middle" font-family="Helvetica Neue, Helvetica, Arial, sans-serif">1 row</text></g><g class="link"><path fill="#3c3f44ff" d="M 142.13943352306836 -919.1239997750578 C 142.13943352306836 -901.8522031811849 142.13943352306836 -901.8522031811849 142.13943352306836 -869.1239997750578 L 117.86056647693164 -869.1239997750578 C 117.86056647693164 -886.3957963689306 117.86056647693164 -886.3957963689306 117.86056647693164 -919.1239997750578 Z"/><text class="text-[12px] font-bold" fill="#f5f6f6ff" x="130" y="-893.1239997750578" text-anchor="middle" font-family="Helvetica Neue, Helvetica, Arial, sans-serif">12 rows</text></g><g class="link"><path fill="#3c3f44ff" d="M 138.78151250383644 -627.3565447526371 C 138.78151250383644 -607.9470292438725 138.78151250383644 -607.9470292438725 138.78151250383644 -577.3565447526371 L 121.21848749616356 -577.3565447526371 C 121.21848749616356 -596.7660602614017 121.21848749616356 -596.7660602614017 121.21848749616356 -627.3565447526371 Z"/><text class="text-[12px] font-bold" fill="#f5f6f6ff" x="130" y="-601.3565447526371" text-anchor="middle" font-family="Helvetica Neue, Helvetica, Arial, sans-serif">5 rows</text></g><g class="link"><path fill="#3c3f44ff" d="M 138.78151250383644 -463.3565447526371 C 138.78151250383644 -443.9470292438725 138.78151250383644 -443.9470292438725 138.78151250383644 -413.3565447526371 L 121.21848749616356 -413.3565447526371 C 121.21848749616356 -432.76606026140166 121.21848749616356 -432.76606026140166 121.21848749616356 -463.3565447526371 Z"/><text class="text-[12px] font-bold" fill="#f5f6f6ff" x="130" y="-437.3565447526371" text-anchor="middle" font-family="Helvetica Neue, Helvetica, Arial, sans-serif">5 rows</text></g><g class="link"><path fill="#3c3f44ff" d="M 138.78151250383644 -313.3565447526371 C 138.78151250383644 -293.9470292438725 138.78151250383644 -293.9470292438725 138.78151250383644 -263.3565447526371 L 121.21848749616356 -263.3565447526371 C 121.21848749616356 -282.76606026140166 121.21848749616356 -282.76606026140166 121.21848749616356 -313.3565447526371 Z"/><text class="text-[12px] font-bold" fill="#f5f6f6ff" x="130" y="-287.3565447526371" text-anchor="middle" font-family="Helvetica Neue, Helvetica, Arial, sans-serif">5 rows</text></g><g class="link"><path fill="#3c3f44ff" d="M 138.78151250383644 -118 C 138.78151250383644 -105.59048449123543 138.78151250383644 -105.59048449123543 138.78151250383644 -82 L 121.21848749616356 -82 C 121.21848749616356 -94.40951550876457 121.21848749616356 -94.40951550876457 121.21848749616356 -118 Z"/><text class="text-[12px] font-bold" fill="#f5f6f6ff" x="130" y="-92" text-anchor="middle" font-family="Helvetica Neue, Helvetica, Arial, sans-serif">5 rows</text></g></g><g class="layer operators"><g class="operator" transform="translate(0, -82)"><rect class="background" width="260" height="32" rx="8" ry="8" fill="rgb(33, 35, 37)"/><g class="header" pointer-events="all"><path class="banner" d="M 252 0 A 8 8 0 0 1 260 8 L 260 18 A 8 8 0 0 1 259.7459666924148 26 L 0.25403330758516596 26 A 8 8 0 0 1 0 18 L 0 8 A 8 8 0 0 1 8 0 Z" style="fill: rgb(247, 243, 255);"/><text class="title text-[12px] font-bold" x="26" y="17" fill="#000000" font-family="Helvetica Neue, Helvetica, Arial, sans-serif">Result</text></g><path class="cost" fill="#ffaa97ff" d="M 252 32 A 8 8 0 0 1 252 32 L 8 32 A 8 8 0 0 1 8 32 Z"/><rect class="b-outline" width="260" rx="8" ry="8" fill="none" stroke-width="1" style="stroke: rgb(94, 99, 106);" height="32"/></g><g class="operator" transform="translate(0, -263.3565368652344)"><rect class="background" width="260" height="145.3565447526371" rx="8" ry="8" fill="rgb(33, 35, 37)"/><g class="header" pointer-events="all"><path class="banner" d="M 252 0 A 8 8 0 0 1 260 8 L 260 18 A 8 8 0 0 1 260 26 L 0 26 A 8 8 0 0 1 0 18 L 0 8 A 8 8 0 0 1 8 0 Z" style="fill: rgb(247, 243, 255);"/><path class="expand" fill="#000000" d="M -5 -10 L 8.66 0 L -5 10 Z" transform="translate(13, 13) rotate(90) scale(0.5,0.5)"/><text class="title text-[12px] font-bold" x="26" y="17" fill="#000000" font-family="Helvetica Neue, Helvetica, Arial, sans-serif">ProduceResults@projet</text></g><g class="detail identifiers text-[10px] font-mono" transform="translate(0, 40)"><text font-size="10" x="3" text-anchor="start" fill="#f5f6f6ff" font-family="Helvetica Neue, Helvetica, Arial, sans-serif">c, anon_0, s, p</text></g><g class="detail padding text-[10px]" transform="translate(0, 54)"><text font-size="10" x="3" text-anchor="start" fill="#f5f6f6ff" font-family="Helvetica Neue, Helvetica, Arial, sans-serif"/><path class="divider" visibility="visible" d="M 0 -6 L 260 -6" stroke="#DFE1E3"/></g><g class="detail expression text-[10px] font-mono" transform="translate(0, 60)"><text font-size="10" x="3" text-anchor="start" fill="#f5f6f6ff" font-family="Helvetica Neue, Helvetica, Arial, sans-serif">p</text></g><g class="detail padding text-[10px]" transform="translate(0, 74)"><text font-size="10" x="3" text-anchor="start" fill="#f5f6f6ff" font-family="Helvetica Neue, Helvetica, Arial, sans-serif"/><path class="divider" visibility="visible" d="M 0 -6 L 260 -6" stroke="#DFE1E3"/></g><g class="detail global-memory text-[10px]" transform="translate(0, 80)"><text font-size="10" x="3" text-anchor="start" fill="#f5f6f6ff" font-family="Helvetica Neue, Helvetica, Arial, sans-serif">368 total memory (bytes)</text></g><g class="detail operator-memory text-[10px]" transform="translate(0, 94)"><text font-size="10" x="3" text-anchor="start" fill="#f5f6f6ff" font-family="Helvetica Neue, Helvetica, Arial, sans-serif">0 memory (bytes)</text></g><g class="detail estimated-rows text-[10px]" transform="translate(0, 108)"><text font-size="10" x="3" text-anchor="start" fill="#f5f6f6ff" font-family="Helvetica Neue, Helvetica, Arial, sans-serif">5 estimated rows</text></g><path class="cost" fill="#ffaa97ff" d="M 0 128 L 260 128 L 260 137.3565447526371 A 8 8 0 0 1 252 145.3565447526371 L 8 145.3565447526371 A 8 8 0 0 1 0 137.3565447526371 Z"/><text class="cost text-[10px] font-bold" fill="#1a1b1dff" x="3" text-anchor="start" y="142" font-family="Helvetica Neue, Helvetica, Arial, sans-serif">120 db hits</text><rect class="b-outline" width="260" rx="8" ry="8" fill="none" stroke-width="1" style="stroke: rgb(94, 99, 106);" height="145.3565447526371"/></g><g class="operator" transform="translate(0, -413.3565368652344)"><rect class="background" width="260" height="100" rx="8" ry="8" fill="rgb(33, 35, 37)"/><g class="header" pointer-events="all"><path class="banner" d="M 252 0 A 8 8 0 0 1 260 8 L 260 18 A 8 8 0 0 1 260 26 L 0 26 A 8 8 0 0 1 0 18 L 0 8 A 8 8 0 0 1 8 0 Z" style="fill: rgb(160, 123, 236);"/><path class="expand" fill="#000000" d="M -5 -10 L 8.66 0 L -5 10 Z" transform="translate(13, 13) rotate(90) scale(0.5,0.5)"/><text class="title text-[12px] font-bold" x="26" y="17" fill="#000000" font-family="Helvetica Neue, Helvetica, Arial, sans-serif">Projection@projet</text></g><g class="detail identifiers text-[10px] font-mono" transform="translate(0, 40)"><text font-size="10" x="3" text-anchor="start" fill="#f5f6f6ff" font-family="Helvetica Neue, Helvetica, Arial, sans-serif">c, anon_0, s, p</text></g><g class="detail padding text-[10px]" transform="translate(0, 54)"><text font-size="10" x="3" text-anchor="start" fill="#f5f6f6ff" font-family="Helvetica Neue, Helvetica, Arial, sans-serif"/><path class="divider" visibility="visible" d="M 0 -6 L 260 -6" stroke="#DFE1E3"/></g><g class="detail expression text-[10px] font-mono" transform="translate(0, 60)"><text font-size="10" x="3" text-anchor="start" fill="#f5f6f6ff" font-family="Helvetica Neue, Helvetica, Arial, sans-serif">(s)-[anon_0*]-&gt;(c) AS p</text></g><g class="detail padding text-[10px]" transform="translate(0, 74)"><text font-size="10" x="3" text-anchor="start" fill="#f5f6f6ff" font-family="Helvetica Neue, Helvetica, Arial, sans-serif"/><path class="divider" visibility="visible" d="M 0 -6 L 260 -6" stroke="#DFE1E3"/></g><g class="detail estimated-rows text-[10px]" transform="translate(0, 80)"><text font-size="10" x="3" text-anchor="start" fill="#f5f6f6ff" font-family="Helvetica Neue, Helvetica, Arial, sans-serif">5 estimated rows</text></g><g class="detail db-hits text-[10px]" transform="translate(0, 94)"><text font-size="10" x="3" text-anchor="start" fill="#f5f6f6ff" font-family="Helvetica Neue, Helvetica, Arial, sans-serif">0 db hits</text></g><path class="cost" fill="#ffaa97ff" d="M 252 100 A 8 8 0 0 1 252 100 L 8 100 A 8 8 0 0 1 8 100 Z"/><rect class="b-outline" width="260" rx="8" ry="8" fill="none" stroke-width="1" style="stroke: rgb(94, 99, 106);" height="100"/></g><g class="operator" transform="translate(0, -577.3565673828125)"><rect class="background" width="260" height="114" rx="8" ry="8" fill="rgb(33, 35, 37)"/><g class="header" pointer-events="all"><path class="banner" d="M 252 0 A 8 8 0 0 1 260 8 L 260 18 A 8 8 0 0 1 260 26 L 0 26 A 8 8 0 0 1 0 18 L 0 8 A 8 8 0 0 1 8 0 Z" style="fill: rgb(160, 123, 236);"/><path class="expand" fill="#000000" d="M -5 -10 L 8.66 0 L -5 10 Z" transform="translate(13, 13) rotate(90) scale(0.5,0.5)"/><text class="title text-[12px] font-bold" x="26" y="17" fill="#000000" font-family="Helvetica Neue, Helvetica, Arial, sans-serif">Limit@projet</text></g><g class="detail identifiers text-[10px] font-mono" transform="translate(0, 40)"><text font-size="10" x="3" text-anchor="start" fill="#f5f6f6ff" font-family="Helvetica Neue, Helvetica, Arial, sans-serif">c, anon_0, s</text></g><g class="detail padding text-[10px]" transform="translate(0, 54)"><text font-size="10" x="3" text-anchor="start" fill="#f5f6f6ff" font-family="Helvetica Neue, Helvetica, Arial, sans-serif"/><path class="divider" visibility="visible" d="M 0 -6 L 260 -6" stroke="#DFE1E3"/></g><g class="detail expression text-[10px] font-mono" transform="translate(0, 60)"><text font-size="10" x="3" text-anchor="start" fill="#f5f6f6ff" font-family="Helvetica Neue, Helvetica, Arial, sans-serif">5</text></g><g class="detail padding text-[10px]" transform="translate(0, 74)"><text font-size="10" x="3" text-anchor="start" fill="#f5f6f6ff" font-family="Helvetica Neue, Helvetica, Arial, sans-serif"/><path class="divider" visibility="visible" d="M 0 -6 L 260 -6" stroke="#DFE1E3"/></g><g class="detail operator-memory text-[10px]" transform="translate(0, 80)"><text font-size="10" x="3" text-anchor="start" fill="#f5f6f6ff" font-family="Helvetica Neue, Helvetica, Arial, sans-serif">32 memory (bytes)</text></g><g class="detail estimated-rows text-[10px]" transform="translate(0, 94)"><text font-size="10" x="3" text-anchor="start" fill="#f5f6f6ff" font-family="Helvetica Neue, Helvetica, Arial, sans-serif">5 estimated rows</text></g><g class="detail db-hits text-[10px]" transform="translate(0, 108)"><text font-size="10" x="3" text-anchor="start" fill="#f5f6f6ff" font-family="Helvetica Neue, Helvetica, Arial, sans-serif">0 db hits</text></g><path class="cost" fill="#ffaa97ff" d="M 252 114 A 8 8 0 0 1 252 114 L 8 114 A 8 8 0 0 1 8 114 Z"/><rect class="b-outline" width="260" rx="8" ry="8" fill="none" stroke-width="1" style="stroke: rgb(94, 99, 106);" height="114"/></g><g class="operator" transform="translate(0, -869.1240234375)"><rect class="background" width="260" height="241.76745502242068" rx="8" ry="8" fill="rgb(33, 35, 37)"/><g class="header" pointer-events="all"><path class="banner" d="M 252 0 A 8 8 0 0 1 260 8 L 260 18 A 8 8 0 0 1 260 26 L 0 26 A 8 8 0 0 1 0 18 L 0 8 A 8 8 0 0 1 8 0 Z" style="fill: rgb(75, 40, 148);"/><path class="expand" fill="#FFFFFF" d="M -5 -10 L 8.66 0 L -5 10 Z" transform="translate(13, 13) rotate(90) scale(0.5,0.5)"/><text class="title text-[12px] font-bold" x="26" y="17" fill="#FFFFFF" font-family="Helvetica Neue, Helvetica, Arial, sans-serif">Filter@projet</text></g><g class="detail identifiers text-[10px] font-mono" transform="translate(0, 40)"><text font-size="10" x="3" text-anchor="start" fill="#f5f6f6ff" font-family="Helvetica Neue, Helvetica, Arial, sans-serif">c, anon_0, s</text></g><g class="detail padding text-[10px]" transform="translate(0, 54)"><text font-size="10" x="3" text-anchor="start" fill="#f5f6f6ff" font-family="Helvetica Neue, Helvetica, Arial, sans-serif"/><path class="divider" visibility="visible" d="M 0 -6 L 260 -6" stroke="#DFE1E3"/></g><g class="detail expression text-[10px] font-mono" transform="translate(0, 60)"><text font-size="10" x="3" text-anchor="start" fill="#f5f6f6ff" font-family="Helvetica Neue, Helvetica, Arial, sans-serif">s:Supplier AND reduce(cost = {accumulator:</text></g><g class="detail expression text-[10px] font-mono" transform="translate(0, 74)"><text font-size="10" x="3" text-anchor="start" fill="#f5f6f6ff" font-family="Helvetica Neue, Helvetica, Arial, sans-serif"> $autoint_4, result: true}, r IN </text></g><g class="detail expression text-[10px] font-mono" transform="translate(0, 88)"><text font-size="10" x="3" text-anchor="start" fill="#f5f6f6ff" font-family="Helvetica Neue, Helvetica, Arial, sans-serif">relationships((s)-[anon_0*]-&gt;(c)) | CASE
 </text></g><g class="detail expression text-[10px] font-mono" transform="translate(0, 102)"><text font-size="10" x="3" text-anchor="start" fill="#f5f6f6ff" font-family="Helvetica Neue, Helvetica, Arial, sans-serif"> WHEN cost.result = false THEN cost
  ELSE</text></g><g class="detail expression text-[10px] font-mono" transform="translate(0, 116)"><text font-size="10" x="3" text-anchor="start" fill="#f5f6f6ff" font-family="Helvetica Neue, Helvetica, Arial, sans-serif"> [anon_1 IN [((cost.accumulator + coalesce</text></g><g class="detail expression text-[10px] font-mono" transform="translate(0, 130)"><text font-size="10" x="3" text-anchor="start" fill="#f5f6f6ff" font-family="Helvetica Neue, Helvetica, Arial, sans-serif">(r.manufacturing_cost, $autoint_0)) + </text></g><g class="detail expression text-[10px] font-mono" transform="translate(0, 144)"><text font-size="10" x="3" text-anchor="start" fill="#f5f6f6ff" font-family="Helvetica Neue, Helvetica, Arial, sans-serif">coalesce(r.shipping_cost, $autoint_1)) + </text></g><g class="detail expression text-[10px] font-mono" transform="translate(0, 158)"><text font-size="10" x="3" text-anchor="start" fill="#f5f6f6ff" font-family="Helvetica Neue, Helvetica, Arial, sans-serif">coalesce(r.route_cost, $autoint_2)] | {</text></g><g class="detail expression text-[10px] font-mono" transform="translate(0, 172)"><text font-size="10" x="3" text-anchor="start" fill="#f5f6f6ff" font-family="Helvetica Neue, Helvetica, Arial, sans-serif">accumulator: anon_1, result: cost.result </text></g><g class="detail expression text-[10px] font-mono" transform="translate(0, 186)"><text font-size="10" x="3" text-anchor="start" fill="#f5f6f6ff" font-family="Helvetica Neue, Helvetica, Arial, sans-serif">AND anon_1 &lt; $autoint_3}][0]
END).result</text></g><g class="detail padding text-[10px]" transform="translate(0, 200)"><text font-size="10" x="3" text-anchor="start" fill="#f5f6f6ff" font-family="Helvetica Neue, Helvetica, Arial, sans-serif"/><path class="divider" visibility="visible" d="M 0 -6 L 260 -6" stroke="#DFE1E3"/></g><g class="detail estimated-rows text-[10px]" transform="translate(0, 206)"><text font-size="10" x="3" text-anchor="start" fill="#f5f6f6ff" font-family="Helvetica Neue, Helvetica, Arial, sans-serif">5 estimated rows</text></g><g class="detail db-hits text-[10px]" transform="translate(0, 220)"><text font-size="10" x="3" text-anchor="start" fill="#f5f6f6ff" font-family="Helvetica Neue, Helvetica, Arial, sans-serif">77 db hits</text></g><path class="cost" fill="#ffaa97ff" d="M 0 226 L 260 226 L 260 233.76745502242068 A 8 8 0 0 1 252 241.76745502242068 L 8 241.76745502242068 A 8 8 0 0 1 0 233.76745502242068 Z"/><rect class="b-outline" width="260" rx="8" ry="8" fill="none" stroke-width="1" style="stroke: rgb(94, 99, 106);" height="241.76745502242068"/></g><g class="operator" transform="translate(0, -1044.7735595703125)"><rect class="background" width="260" height="125.64950007226697" rx="8" ry="8" fill="rgb(33, 35, 37)"/><g class="header" pointer-events="all"><path class="banner" d="M 252 0 A 8 8 0 0 1 260 8 L 260 18 A 8 8 0 0 1 260 26 L 0 26 A 8 8 0 0 1 0 18 L 0 8 A 8 8 0 0 1 8 0 Z" style="fill: rgb(44, 42, 52);"/><path class="expand" fill="#FFFFFF" d="M -5 -10 L 8.66 0 L -5 10 Z" transform="translate(13, 13) rotate(90) scale(0.5,0.5)"/><text class="title text-[12px] font-bold" x="26" y="17" fill="#FFFFFF" font-family="Helvetica Neue, Helvetica, Arial, sans-serif">VarLengthExpand(All)@projet</text></g><g class="detail identifiers text-[10px] font-mono" transform="translate(0, 40)"><text font-size="10" x="3" text-anchor="start" fill="#f5f6f6ff" font-family="Helvetica Neue, Helvetica, Arial, sans-serif">c, anon_0, s</text></g><g class="detail padding text-[10px]" transform="translate(0, 54)"><text font-size="10" x="3" text-anchor="start" fill="#f5f6f6ff" font-family="Helvetica Neue, Helvetica, Arial, sans-serif"/><path class="divider" visibility="visible" d="M 0 -6 L 260 -6" stroke="#DFE1E3"/></g><g class="detail expression text-[10px] font-mono" transform="translate(0, 60)"><text font-size="10" x="3" text-anchor="start" fill="#f5f6f6ff" font-family="Helvetica Neue, Helvetica, Arial, sans-serif">(c)&lt;-[anon_0*..5]-(s)</text></g><g class="detail padding text-[10px]" transform="translate(0, 74)"><text font-size="10" x="3" text-anchor="start" fill="#f5f6f6ff" font-family="Helvetica Neue, Helvetica, Arial, sans-serif"/><path class="divider" visibility="visible" d="M 0 -6 L 260 -6" stroke="#DFE1E3"/></g><g class="detail operator-memory text-[10px]" transform="translate(0, 80)"><text font-size="10" x="3" text-anchor="start" fill="#f5f6f6ff" font-family="Helvetica Neue, Helvetica, Arial, sans-serif">128 memory (bytes)</text></g><g class="detail estimated-rows text-[10px]" transform="translate(0, 94)"><text font-size="10" x="3" text-anchor="start" fill="#f5f6f6ff" font-family="Helvetica Neue, Helvetica, Arial, sans-serif">16 estimated rows</text></g><g class="detail db-hits text-[10px]" transform="translate(0, 108)"><text font-size="10" x="3" text-anchor="start" fill="#f5f6f6ff" font-family="Helvetica Neue, Helvetica, Arial, sans-serif">24 db hits</text></g><path class="cost" fill="#ffaa97ff" d="M 0 114 L 260 114 L 260 117.64950007226697 A 8 8 0 0 1 252 125.64950007226697 L 8 125.64950007226697 A 8 8 0 0 1 0 117.64950007226697 Z"/><rect class="b-outline" width="260" rx="8" ry="8" fill="none" stroke-width="1" style="stroke: rgb(94, 99, 106);" height="125.64950007226697"/></g><g class="operator" transform="translate(0, -1254.74951171875)"><rect class="background" width="260" height="159.9760104559972" rx="8" ry="8" fill="rgb(33, 35, 37)"/><g class="header" pointer-events="all"><path class="banner" d="M 252 0 A 8 8 0 0 1 260 8 L 260 18 A 8 8 0 0 1 260 26 L 0 26 A 8 8 0 0 1 0 18 L 0 8 A 8 8 0 0 1 8 0 Z" style="fill: rgb(204, 180, 255);"/><path class="expand" fill="#000000" d="M -5 -10 L 8.66 0 L -5 10 Z" transform="translate(13, 13) rotate(90) scale(0.5,0.5)"/><text class="title text-[12px] font-bold" x="26" y="17" fill="#000000" font-family="Helvetica Neue, Helvetica, Arial, sans-serif">NodeByLabelScan@projet</text></g><g class="detail identifiers text-[10px] font-mono" transform="translate(0, 40)"><text font-size="10" x="3" text-anchor="start" fill="#f5f6f6ff" font-family="Helvetica Neue, Helvetica, Arial, sans-serif">c</text></g><g class="detail padding text-[10px]" transform="translate(0, 54)"><text font-size="10" x="3" text-anchor="start" fill="#f5f6f6ff" font-family="Helvetica Neue, Helvetica, Arial, sans-serif"/><path class="divider" visibility="visible" d="M 0 -6 L 260 -6" stroke="#DFE1E3"/></g><g class="detail expression text-[10px] font-mono" transform="translate(0, 60)"><text font-size="10" x="3" text-anchor="start" fill="#f5f6f6ff" font-family="Helvetica Neue, Helvetica, Arial, sans-serif">c:Client</text></g><g class="detail padding text-[10px]" transform="translate(0, 74)"><text font-size="10" x="3" text-anchor="start" fill="#f5f6f6ff" font-family="Helvetica Neue, Helvetica, Arial, sans-serif"/><path class="divider" visibility="visible" d="M 0 -6 L 260 -6" stroke="#DFE1E3"/></g><g class="detail operator-memory text-[10px]" transform="translate(0, 80)"><text font-size="10" x="3" text-anchor="start" fill="#f5f6f6ff" font-family="Helvetica Neue, Helvetica, Arial, sans-serif">248 memory (bytes)</text></g><g class="detail pagecache-hits text-[10px]" transform="translate(0, 94)"><text font-size="10" x="3" text-anchor="start" fill="#f5f6f6ff" font-family="Helvetica Neue, Helvetica, Arial, sans-serif">40 pagecache hits</text></g><g class="detail pagecache-misses text-[10px]" transform="translate(0, 108)"><text font-size="10" x="3" text-anchor="start" fill="#f5f6f6ff" font-family="Helvetica Neue, Helvetica, Arial, sans-serif">0 pagecache misses</text></g><g class="detail estimated-rows text-[10px]" transform="translate(0, 122)"><text font-size="10" x="3" text-anchor="start" fill="#f5f6f6ff" font-family="Helvetica Neue, Helvetica, Arial, sans-serif">1 estimated rows</text></g><g class="detail db-hits text-[10px]" transform="translate(0, 136)"><text font-size="10" x="3" text-anchor="start" fill="#f5f6f6ff" font-family="Helvetica Neue, Helvetica, Arial, sans-serif">2 db hits</text></g><g class="detail time text-[10px]" transform="translate(0, 150)"><text font-size="10" x="3" text-anchor="start" fill="#f5f6f6ff" font-family="Helvetica Neue, Helvetica, Arial, sans-serif">2.249 time (ms)</text></g><path class="cost" fill="#ffaa97ff" d="M 258.9142973720947 156 A 8 8 0 0 1 252 159.9760104559972 L 8 159.9760104559972 A 8 8 0 0 1 1.085702627905274 156 Z"/><rect class="b-outline" width="260" rx="8" ry="8" fill="none" stroke-width="1" style="stroke: rgb(94, 99, 106);" height="159.9760104559972"/></g></g></g><g><rect fill="#212325ff" width="414.225" height="38"/><text font-size="10" fill="#f5f6f6ff" font-family="Helvetica Neue, Helvetica, Arial, sans-serif" x="12" y="12">Cypher version: 25, Planner: COST, Runtime: PIPELINED</text><text font-size="10" fill="#f5f6f6ff" font-family="Helvetica Neue, Helvetica, Arial, sans-serif" x="12" y="30">Total database accesses: 223, Total allocated memory: 368 bytes, Total time: 61 ms</text><rect fill="none" stroke="#5e636aff" width="414.225" height="38" stroke-width="1"/></g></svg>