<svg xmlns="http://www.w3.org/2000/svg" height="2135.953857421875" width="581.9470825195312" viewBox="22.98432731628418 -2083.953857421875 581.9470825195312 2135.953857421875"><g height="2033.953857421875" width="581.9470825195312"><g class="layer links"><g class="link"><path fill="#3c3f44ff" d="M 159.085794909476 -1275.1333157007648 C 159.085794909476 -1252.6863519462865 159.20775788065419 -1252.6863519462865 159.20775788065419 -1225.133315700765 L 151.18715796737456 -1225.133315700765 C 151.18715796737456 -1247.580279455243 151.06519499619637 -1247.580279455243 151.06519499619637 -1275.1333157007648 Z"/><text class="text-[12px] font-bold" fill="#f5f6f6ff" x="155.07549495283618" y="-1249.1333157007648" text-anchor="middle" font-family="Helvetica Neue, Helvetica, Arial, sans-serif">1 row</text></g><g class="link"><path fill="#3c3f44ff" d="M 169.8147362841903 -1097.356544752637 C 169.8147362841903 -1063.0508963303482 168.67340274368996 -1063.0508963303482 168.67340274368996 -1047.356544752637 L 139.4388460233381 -1047.356544752637 C 139.4388460233381 -1081.662193174926 140.58017956383844 -1081.662193174926 140.58017956383844 -1097.356544752637 Z"/><text class="text-[12px] font-bold" fill="#f5f6f6ff" x="155.19745792401437" y="-1071.356544752637" text-anchor="middle" font-family="Helvetica Neue, Helvetica, Arial, sans-serif">22 rows</text></g><g class="link"><path fill="#3c3f44ff" d="M 165.4700512350963 -933.7443076228072 C 165.4700512350963 -904.8167577017967 295.2691651228432 -904.8167577017967 295.2691651228432 -861.3565447526371 L 272.4413114196787 -861.3565447526371 C 272.4413114196787 -890.2840946736477 142.64219753193177 -890.2840946736477 142.64219753193177 -933.7443076228072 Z"/><text class="text-[12px] font-bold" fill="#f5f6f6ff" x="154.05612438351403" y="-907.7443076228072" text-anchor="middle" font-family="Helvetica Neue, Helvetica, Arial, sans-serif">10 rows</text></g><g class="link"><path fill="#3c3f44ff" d="M 476.87653528623997 -1927.9539142089607 C 476.87653528623997 -1910.220245723035 477.83583106880866 -1910.220245723035 477.83583106880866 -1877.9539142089607 L 455.00797736564414 -1877.9539142089607 C 455.00797736564414 -1895.6875826948863 454.0486815830755 -1895.6875826948863 454.0486815830755 -1927.9539142089607 Z"/><text class="text-[12px] font-bold" fill="#f5f6f6ff" x="465.46260843465774" y="-1901.9539142089607" text-anchor="middle" font-family="Helvetica Neue, Helvetica, Arial, sans-serif">10 rows</text></g><g class="link"><path fill="#3c3f44ff" d="M 490.9821627891576 -1733.4066243673449 C 490.9821627891576 -1726.8657802699613 492.80957882500326 -1726.8657802699613 492.80957882500326 -1697.4066243673449 L 443.6890616811408 -1697.4066243673449 C 443.6890616811408 -1703.9474684647284 441.86164564529514 -1703.9474684647284 441.86164564529514 -1733.4066243673449 Z"/><text class="text-[12px] font-bold" fill="#f5f6f6ff" x="466.42190421722637" y="-1707.4066243673449" text-anchor="middle" font-family="Helvetica Neue, Helvetica, Arial, sans-serif">226 rows</text></g><g class="link"><path fill="#3c3f44ff" d="M 492.80957882500326 -1471.109326156762 C 492.80957882500326 -1464.5684820593785 495.3752516561932 -1464.5684820593785 495.3752516561932 -1435.109326156762 L 446.25473451233074 -1435.109326156762 C 446.25473451233074 -1441.6501702541457 443.6890616811408 -1441.6501702541457 443.6890616811408 -1471.109326156762 Z"/><text class="text-[12px] font-bold" fill="#f5f6f6ff" x="468.249320253072" y="-1445.109326156762" text-anchor="middle" font-family="Helvetica Neue, Helvetica, Arial, sans-serif">226 rows</text></g><g class="link"><path fill="#3c3f44ff" d="M 471.81499308426197 -1335.109326156762 C 471.81499308426197 -1280.757940701131 474.8596414057751 -1280.757940701131 474.8596414057751 -1225.133315700765 L 472.8596414057751 -1225.133315700765 C 472.8596414057751 -1279.4847011563959 469.81499308426197 -1279.4847011563959 469.81499308426197 -1335.109326156762 Z"/><text class="text-[12px] font-bold" fill="#f5f6f6ff" x="470.81499308426197" y="-1309.109326156762" text-anchor="middle" font-family="Helvetica Neue, Helvetica, Arial, sans-serif">0 rows</text></g><g class="link"><path fill="#3c3f44ff" d="M 474.8596414057751 -1111.133315700765 C 474.8596414057751 -1078.6083104543334 465.05612438351403 -1078.6083104543334 465.05612438351403 -1047.356544752637 L 463.05612438351403 -1047.356544752637 C 463.05612438351403 -1079.8815499990685 472.8596414057751 -1079.8815499990685 472.8596414057751 -1111.133315700765 Z"/><text class="text-[12px] font-bold" fill="#f5f6f6ff" x="473.8596414057751" y="-1085.133315700765" text-anchor="middle" font-family="Helvetica Neue, Helvetica, Arial, sans-serif">0 rows</text></g><g class="link"><path fill="#3c3f44ff" d="M 475.47005123509626 -911.3565447526371 C 475.47005123509626 -879.0902132385626 318.09701882600774 -879.0902132385626 318.09701882600774 -861.3565447526371 L 295.2691651228432 -861.3565447526371 C 295.2691651228432 -893.6228762667116 452.6421975319318 -893.6228762667116 452.6421975319318 -911.3565447526371 Z"/><text class="text-[12px] font-bold" fill="#f5f6f6ff" x="464.05612438351403" y="-885.3565447526371" text-anchor="middle" font-family="Helvetica Neue, Helvetica, Arial, sans-serif">10 rows</text></g><g class="link"><path fill="#3c3f44ff" d="M 306.68309197442545 -753.3565447526371 C 306.68309197442545 -721.0902132385626 291.19065454702775 -721.0902132385626 291.19065454702775 -703.3565447526371 L 268.3628008438632 -703.3565447526371 C 268.3628008438632 -735.6228762667116 283.855238271261 -735.6228762667116 283.855238271261 -753.3565447526371 Z"/><text class="text-[12px] font-bold" fill="#f5f6f6ff" x="295.2691651228432" y="-727.3565447526371" text-anchor="middle" font-family="Helvetica Neue, Helvetica, Arial, sans-serif">10 rows</text></g><g class="link"><path fill="#3c3f44ff" d="M 288.5582401992819 -547.3565447526371 C 288.5582401992819 -516.7660602614017 277.0900243327794 -516.7660602614017 277.0900243327794 -497.3565447526371 L 259.52699932510654 -497.3565447526371 C 259.52699932510654 -527.9470292438725 270.995215191609 -527.9470292438725 270.995215191609 -547.3565447526371 Z"/><text class="text-[12px] font-bold" fill="#f5f6f6ff" x="279.77672769544546" y="-521.3565447526371" text-anchor="middle" font-family="Helvetica Neue, Helvetica, Arial, sans-serif">5 rows</text></g><g class="link"><path fill="#3c3f44ff" d="M 277.0900243327794 -355.3565447526371 C 277.0900243327794 -324.76606026140166 269.6559991410784 -324.76606026140166 269.6559991410784 -305.3565447526371 L 252.0929741334055 -305.3565447526371 C 252.0929741334055 -335.9470292438725 259.52699932510654 -335.9470292438725 259.52699932510654 -355.3565447526371 Z"/><text class="text-[12px] font-bold" fill="#f5f6f6ff" x="268.308511828943" y="-329.3565447526371" text-anchor="middle" font-family="Helvetica Neue, Helvetica, Arial, sans-serif">5 rows</text></g><g class="link"><path fill="#3c3f44ff" d="M 269.6559991410784 -118 C 269.6559991410784 -94.40951550876457 266.00824602037 -94.40951550876457 266.00824602037 -82 L 248.44522101269715 -82 C 248.44522101269715 -105.59048449123543 252.0929741334055 -105.59048449123543 252.0929741334055 -118 Z"/><text class="text-[12px] font-bold" fill="#f5f6f6ff" x="260.87448663724194" y="-92" text-anchor="middle" font-family="Helvetica Neue, Helvetica, Arial, sans-serif">5 rows</text></g></g><g class="layer operators"><g class="operator" transform="translate(127.22673034667969, -82)"><rect class="background" width="260" height="32" rx="8" ry="8" fill="rgb(33, 35, 37)"/><g class="header" pointer-events="all"><path class="banner" d="M 252 0 A 8 8 0 0 1 260 8 L 260 18 A 8 8 0 0 1 259.7459666924148 26 L 0.25403330758516596 26 A 8 8 0 0 1 0 18 L 0 8 A 8 8 0 0 1 8 0 Z" style="fill: rgb(247, 243, 255);"/><text class="title text-[12px] font-bold" x="26" y="17" fill="#000000" font-family="Helvetica Neue, Helvetica, Arial, sans-serif">Result</text></g><path class="cost" fill="#ffaa97ff" d="M 252 32 A 8 8 0 0 1 252 32 L 8 32 A 8 8 0 0 1 8 32 Z"/><rect class="b-outline" width="260" rx="8" ry="8" fill="none" stroke-width="1" style="stroke: rgb(94, 99, 106);" height="32"/></g><g class="operator" transform="translate(130.87448120117188, -305.3565368652344)"><rect class="background" width="260" height="187.3565447526371" rx="8" ry="8" fill="rgb(33, 35, 37)"/><g class="header" pointer-events="all"><path class="banner" d="M 252 0 A 8 8 0 0 1 260 8 L 260 18 A 8 8 0 0 1 260 26 L 0 26 A 8 8 0 0 1 0 18 L 0 8 A 8 8 0 0 1 8 0 Z" style="fill: rgb(247, 243, 255);"/><path class="expand" fill="#000000" d="M -5 -10 L 8.66 0 L -5 10 Z" transform="translate(13, 13) rotate(90) scale(0.5,0.5)"/><text class="title text-[12px] font-bold" x="26" y="17" fill="#000000" font-family="Helvetica Neue, Helvetica, Arial, sans-serif">ProduceResults@projet</text></g><g class="detail identifiers text-[10px] font-mono" transform="translate(0, 40)"><text font-size="10" x="3" text-anchor="start" fill="#f5f6f6ff" font-family="Helvetica Neue, Helvetica, Arial, sans-serif">s, anon_0, invalid, p, c</text></g><g class="detail padding text-[10px]" transform="translate(0, 54)"><text font-size="10" x="3" text-anchor="start" fill="#f5f6f6ff" font-family="Helvetica Neue, Helvetica, Arial, sans-serif"/><path class="divider" visibility="visible" d="M 0 -6 L 260 -6" stroke="#DFE1E3"/></g><g class="detail expression text-[10px] font-mono" transform="translate(0, 60)"><text font-size="10" x="3" text-anchor="start" fill="#f5f6f6ff" font-family="Helvetica Neue, Helvetica, Arial, sans-serif">p</text></g><g class="detail padding text-[10px]" transform="translate(0, 74)"><text font-size="10" x="3" text-anchor="start" fill="#f5f6f6ff" font-family="Helvetica Neue, Helvetica, Arial, sans-serif"/><path class="divider" visibility="visible" d="M 0 -6 L 260 -6" stroke="#DFE1E3"/></g><g class="detail global-memory text-[10px]" transform="translate(0, 80)"><text font-size="10" x="3" text-anchor="start" fill="#f5f6f6ff" font-family="Helvetica Neue, Helvetica, Arial, sans-serif">6 448 total memory (bytes)</text></g><g class="detail operator-memory text-[10px]" transform="translate(0, 94)"><text font-size="10" x="3" text-anchor="start" fill="#f5f6f6ff" font-family="Helvetica Neue, Helvetica, Arial, sans-serif">0 memory (bytes)</text></g><g class="detail pagecache-hits text-[10px]" transform="translate(0, 108)"><text font-size="10" x="3" text-anchor="start" fill="#f5f6f6ff" font-family="Helvetica Neue, Helvetica, Arial, sans-serif">12 pagecache hits</text></g><g class="detail pagecache-misses text-[10px]" transform="translate(0, 122)"><text font-size="10" x="3" text-anchor="start" fill="#f5f6f6ff" font-family="Helvetica Neue, Helvetica, Arial, sans-serif">0 pagecache misses</text></g><g class="detail estimated-rows text-[10px]" transform="translate(0, 136)"><text font-size="10" x="3" text-anchor="start" fill="#f5f6f6ff" font-family="Helvetica Neue, Helvetica, Arial, sans-serif">5 estimated rows</text></g><g class="detail time text-[10px]" transform="translate(0, 150)"><text font-size="10" x="3" text-anchor="start" fill="#f5f6f6ff" font-family="Helvetica Neue, Helvetica, Arial, sans-serif">3.891 time (ms)</text></g><path class="cost" fill="#ffaa97ff" d="M 0 170 L 260 170 L 260 179.3565447526371 A 8 8 0 0 1 252 187.3565447526371 L 8 187.3565447526371 A 8 8 0 0 1 0 179.3565447526371 Z"/><text class="cost text-[10px] font-bold" fill="#1a1b1dff" x="3" text-anchor="start" y="184" font-family="Helvetica Neue, Helvetica, Arial, sans-serif">120 db hits</text><rect class="b-outline" width="260" rx="8" ry="8" fill="none" stroke-width="1" style="stroke: rgb(94, 99, 106);" height="187.3565447526371"/></g><g class="operator" transform="translate(138.3085174560547, -497.3565368652344)"><rect class="background" width="260" height="142" rx="8" ry="8" fill="rgb(33, 35, 37)"/><g class="header" pointer-events="all"><path class="banner" d="M 252 0 A 8 8 0 0 1 260 8 L 260 18 A 8 8 0 0 1 260 26 L 0 26 A 8 8 0 0 1 0 18 L 0 8 A 8 8 0 0 1 8 0 Z" style="fill: rgb(160, 123, 236);"/><path class="expand" fill="#000000" d="M -5 -10 L 8.66 0 L -5 10 Z" transform="translate(13, 13) rotate(90) scale(0.5,0.5)"/><text class="title text-[12px] font-bold" x="26" y="17" fill="#000000" font-family="Helvetica Neue, Helvetica, Arial, sans-serif">Projection@projet</text></g><g class="detail identifiers text-[10px] font-mono" transform="translate(0, 40)"><text font-size="10" x="3" text-anchor="start" fill="#f5f6f6ff" font-family="Helvetica Neue, Helvetica, Arial, sans-serif">s, anon_0, invalid, p, c</text></g><g class="detail padding text-[10px]" transform="translate(0, 54)"><text font-size="10" x="3" text-anchor="start" fill="#f5f6f6ff" font-family="Helvetica Neue, Helvetica, Arial, sans-serif"/><path class="divider" visibility="visible" d="M 0 -6 L 260 -6" stroke="#DFE1E3"/></g><g class="detail expression text-[10px] font-mono" transform="translate(0, 60)"><text font-size="10" x="3" text-anchor="start" fill="#f5f6f6ff" font-family="Helvetica Neue, Helvetica, Arial, sans-serif">(s)-[anon_0*]-&gt;(c) AS p</text></g><g class="detail padding text-[10px]" transform="translate(0, 74)"><text font-size="10" x="3" text-anchor="start" fill="#f5f6f6ff" font-family="Helvetica Neue, Helvetica, Arial, sans-serif"/><path class="divider" visibility="visible" d="M 0 -6 L 260 -6" stroke="#DFE1E3"/></g><g class="detail pagecache-hits text-[10px]" transform="translate(0, 80)"><text font-size="10" x="3" text-anchor="start" fill="#f5f6f6ff" font-family="Helvetica Neue, Helvetica, Arial, sans-serif">0 pagecache hits</text></g><g class="detail pagecache-misses text-[10px]" transform="translate(0, 94)"><text font-size="10" x="3" text-anchor="start" fill="#f5f6f6ff" font-family="Helvetica Neue, Helvetica, Arial, sans-serif">0 pagecache misses</text></g><g class="detail estimated-rows text-[10px]" transform="translate(0, 108)"><text font-size="10" x="3" text-anchor="start" fill="#f5f6f6ff" font-family="Helvetica Neue, Helvetica, Arial, sans-serif">5 estimated rows</text></g><g class="detail db-hits text-[10px]" transform="translate(0, 122)"><text font-size="10" x="3" text-anchor="start" fill="#f5f6f6ff" font-family="Helvetica Neue, Helvetica, Arial, sans-serif">0 db hits</text></g><g class="detail time text-[10px]" transform="translate(0, 136)"><text font-size="10" x="3" text-anchor="start" fill="#f5f6f6ff" font-family="Helvetica Neue, Helvetica, Arial, sans-serif">0.421 time (ms)</text></g><path class="cost" fill="#ffaa97ff" d="M 252 142 A 8 8 0 0 1 252 142 L 8 142 A 8 8 0 0 1 8 142 Z"/><rect class="b-outline" width="260" rx="8" ry="8" fill="none" stroke-width="1" style="stroke: rgb(94, 99, 106);" height="142"/></g><g class="operator" transform="translate(149.7767333984375, -703.3565673828125)"><rect class="background" width="260" height="156" rx="8" ry="8" fill="rgb(33, 35, 37)"/><g class="header" pointer-events="all"><path class="banner" d="M 252 0 A 8 8 0 0 1 260 8 L 260 18 A 8 8 0 0 1 260 26 L 0 26 A 8 8 0 0 1 0 18 L 0 8 A 8 8 0 0 1 8 0 Z" style="fill: rgb(160, 123, 236);"/><path class="expand" fill="#000000" d="M -5 -10 L 8.66 0 L -5 10 Z" transform="translate(13, 13) rotate(90) scale(0.5,0.5)"/><text class="title text-[12px] font-bold" x="26" y="17" fill="#000000" font-family="Helvetica Neue, Helvetica, Arial, sans-serif">Limit@projet</text></g><g class="detail identifiers text-[10px] font-mono" transform="translate(0, 40)"><text font-size="10" x="3" text-anchor="start" fill="#f5f6f6ff" font-family="Helvetica Neue, Helvetica, Arial, sans-serif">s, anon_0, invalid, p, c</text></g><g class="detail padding text-[10px]" transform="translate(0, 54)"><text font-size="10" x="3" text-anchor="start" fill="#f5f6f6ff" font-family="Helvetica Neue, Helvetica, Arial, sans-serif"/><path class="divider" visibility="visible" d="M 0 -6 L 260 -6" stroke="#DFE1E3"/></g><g class="detail expression text-[10px] font-mono" transform="translate(0, 60)"><text font-size="10" x="3" text-anchor="start" fill="#f5f6f6ff" font-family="Helvetica Neue, Helvetica, Arial, sans-serif">5</text></g><g class="detail padding text-[10px]" transform="translate(0, 74)"><text font-size="10" x="3" text-anchor="start" fill="#f5f6f6ff" font-family="Helvetica Neue, Helvetica, Arial, sans-serif"/><path class="divider" visibility="visible" d="M 0 -6 L 260 -6" stroke="#DFE1E3"/></g><g class="detail operator-memory text-[10px]" transform="translate(0, 80)"><text font-size="10" x="3" text-anchor="start" fill="#f5f6f6ff" font-family="Helvetica Neue, Helvetica, Arial, sans-serif">32 memory (bytes)</text></g><g class="detail pagecache-hits text-[10px]" transform="translate(0, 94)"><text font-size="10" x="3" text-anchor="start" fill="#f5f6f6ff" font-family="Helvetica Neue, Helvetica, Arial, sans-serif">0 pagecache hits</text></g><g class="detail pagecache-misses text-[10px]" transform="translate(0, 108)"><text font-size="10" x="3" text-anchor="start" fill="#f5f6f6ff" font-family="Helvetica Neue, Helvetica, Arial, sans-serif">0 pagecache misses</text></g><g class="detail estimated-rows text-[10px]" transform="translate(0, 122)"><text font-size="10" x="3" text-anchor="start" fill="#f5f6f6ff" font-family="Helvetica Neue, Helvetica, Arial, sans-serif">5 estimated rows</text></g><g class="detail db-hits text-[10px]" transform="translate(0, 136)"><text font-size="10" x="3" text-anchor="start" fill="#f5f6f6ff" font-family="Helvetica Neue, Helvetica, Arial, sans-serif">0 db hits</text></g><g class="detail time text-[10px]" transform="translate(0, 150)"><text font-size="10" x="3" text-anchor="start" fill="#f5f6f6ff" font-family="Helvetica Neue, Helvetica, Arial, sans-serif">0.345 time (ms)</text></g><path class="cost" fill="#ffaa97ff" d="M 252 156 A 8 8 0 0 1 252 156 L 8 156 A 8 8 0 0 1 8 156 Z"/><rect class="b-outline" width="260" rx="8" ry="8" fill="none" stroke-width="1" style="stroke: rgb(94, 99, 106);" height="156"/></g><g class="operator" transform="translate(165.2691650390625, -861.3565673828125)"><rect class="background" width="260" height="108" rx="8" ry="8" fill="rgb(33, 35, 37)"/><g class="header" pointer-events="all"><path class="banner" d="M 252 0 A 8 8 0 0 1 260 8 L 260 18 A 8 8 0 0 1 260 26 L 0 26 A 8 8 0 0 1 0 18 L 0 8 A 8 8 0 0 1 8 0 Z" style="fill: rgb(75, 40, 148);"/><path class="expand" fill="#FFFFFF" d="M -5 -10 L 8.66 0 L -5 10 Z" transform="translate(13, 13) rotate(90) scale(0.5,0.5)"/><text class="title text-[12px] font-bold" x="26" y="17" fill="#FFFFFF" font-family="Helvetica Neue, Helvetica, Arial, sans-serif">Apply@projet</text></g><g class="detail identifiers text-[10px] font-mono" transform="translate(0, 40)"><text font-size="10" x="3" text-anchor="start" fill="#f5f6f6ff" font-family="Helvetica Neue, Helvetica, Arial, sans-serif">s, anon_0, invalid, p, c</text></g><g class="detail padding text-[10px]" transform="translate(0, 54)"><text font-size="10" x="3" text-anchor="start" fill="#f5f6f6ff" font-family="Helvetica Neue, Helvetica, Arial, sans-serif"/><path class="divider" visibility="visible" d="M 0 -6 L 260 -6" stroke="#DFE1E3"/></g><g class="detail pagecache-hits text-[10px]" transform="translate(0, 60)"><text font-size="10" x="3" text-anchor="start" fill="#f5f6f6ff" font-family="Helvetica Neue, Helvetica, Arial, sans-serif">0 pagecache hits</text></g><g class="detail pagecache-misses text-[10px]" transform="translate(0, 74)"><text font-size="10" x="3" text-anchor="start" fill="#f5f6f6ff" font-family="Helvetica Neue, Helvetica, Arial, sans-serif">0 pagecache misses</text></g><g class="detail estimated-rows text-[10px]" transform="translate(0, 88)"><text font-size="10" x="3" text-anchor="start" fill="#f5f6f6ff" font-family="Helvetica Neue, Helvetica, Arial, sans-serif">5 estimated rows</text></g><g class="detail db-hits text-[10px]" transform="translate(0, 102)"><text font-size="10" x="3" text-anchor="start" fill="#f5f6f6ff" font-family="Helvetica Neue, Helvetica, Arial, sans-serif">0 db hits</text></g><path class="cost" fill="#ffaa97ff" d="M 252 108 A 8 8 0 0 1 252 108 L 8 108 A 8 8 0 0 1 8 108 Z"/><rect class="b-outline" width="260" rx="8" ry="8" fill="none" stroke-width="1" style="stroke: rgb(94, 99, 106);" height="108"/></g><g class="operator" transform="translate(24.056123733520508, -1047.3565673828125)"><rect class="background" width="260" height="113.6122371298299" rx="8" ry="8" fill="rgb(33, 35, 37)"/><g class="header" pointer-events="all"><path class="banner" d="M 252 0 A 8 8 0 0 1 260 8 L 260 18 A 8 8 0 0 1 260 26 L 0 26 A 8 8 0 0 1 0 18 L 0 8 A 8 8 0 0 1 8 0 Z" style="fill: rgb(75, 40, 148);"/><path class="expand" fill="#FFFFFF" d="M -5 -10 L 8.66 0 L -5 10 Z" transform="translate(13, 13) rotate(90) scale(0.5,0.5)"/><text class="title text-[12px] font-bold" x="26" y="17" fill="#FFFFFF" font-family="Helvetica Neue, Helvetica, Arial, sans-serif">Filter@projet</text></g><g class="detail identifiers text-[10px] font-mono" transform="translate(0, 40)"><text font-size="10" x="3" text-anchor="start" fill="#f5f6f6ff" font-family="Helvetica Neue, Helvetica, Arial, sans-serif">c, anon_0, s</text></g><g class="detail padding text-[10px]" transform="translate(0, 54)"><text font-size="10" x="3" text-anchor="start" fill="#f5f6f6ff" font-family="Helvetica Neue, Helvetica, Arial, sans-serif"/><path class="divider" visibility="visible" d="M 0 -6 L 260 -6" stroke="#DFE1E3"/></g><g class="detail expression text-[10px] font-mono" transform="translate(0, 60)"><text font-size="10" x="3" text-anchor="start" fill="#f5f6f6ff" font-family="Helvetica Neue, Helvetica, Arial, sans-serif">s:Supplier</text></g><g class="detail padding text-[10px]" transform="translate(0, 74)"><text font-size="10" x="3" text-anchor="start" fill="#f5f6f6ff" font-family="Helvetica Neue, Helvetica, Arial, sans-serif"/><path class="divider" visibility="visible" d="M 0 -6 L 260 -6" stroke="#DFE1E3"/></g><g class="detail estimated-rows text-[10px]" transform="translate(0, 80)"><text font-size="10" x="3" text-anchor="start" fill="#f5f6f6ff" font-family="Helvetica Neue, Helvetica, Arial, sans-serif">5 estimated rows</text></g><g class="detail db-hits text-[10px]" transform="translate(0, 94)"><text font-size="10" x="3" text-anchor="start" fill="#f5f6f6ff" font-family="Helvetica Neue, Helvetica, Arial, sans-serif">42 db hits</text></g><path class="cost" fill="#ffaa97ff" d="M 0 100 L 260 100 L 260 105.6122371298299 A 8 8 0 0 1 252 113.6122371298299 L 8 113.6122371298299 A 8 8 0 0 1 0 105.6122371298299 Z"/><rect class="b-outline" width="260" rx="8" ry="8" fill="none" stroke-width="1" style="stroke: rgb(94, 99, 106);" height="113.6122371298299"/></g><g class="operator" transform="translate(25.197458267211914, -1225.13330078125)"><rect class="background" width="260" height="127.77677094812786" rx="8" ry="8" fill="rgb(33, 35, 37)"/><g class="header" pointer-events="all"><path class="banner" d="M 252 0 A 8 8 0 0 1 260 8 L 260 18 A 8 8 0 0 1 260 26 L 0 26 A 8 8 0 0 1 0 18 L 0 8 A 8 8 0 0 1 8 0 Z" style="fill: rgb(44, 42, 52);"/><path class="expand" fill="#FFFFFF" d="M -5 -10 L 8.66 0 L -5 10 Z" transform="translate(13, 13) rotate(90) scale(0.5,0.5)"/><text class="title text-[12px] font-bold" x="26" y="17" fill="#FFFFFF" font-family="Helvetica Neue, Helvetica, Arial, sans-serif">VarLengthExpand(All)@projet</text></g><g class="detail identifiers text-[10px] font-mono" transform="translate(0, 40)"><text font-size="10" x="3" text-anchor="start" fill="#f5f6f6ff" font-family="Helvetica Neue, Helvetica, Arial, sans-serif">c, anon_0, s</text></g><g class="detail padding text-[10px]" transform="translate(0, 54)"><text font-size="10" x="3" text-anchor="start" fill="#f5f6f6ff" font-family="Helvetica Neue, Helvetica, Arial, sans-serif"/><path class="divider" visibility="visible" d="M 0 -6 L 260 -6" stroke="#DFE1E3"/></g><g class="detail expression text-[10px] font-mono" transform="translate(0, 60)"><text font-size="10" x="3" text-anchor="start" fill="#f5f6f6ff" font-family="Helvetica Neue, Helvetica, Arial, sans-serif">(c)&lt;-[anon_0*..5]-(s)</text></g><g class="detail padding text-[10px]" transform="translate(0, 74)"><text font-size="10" x="3" text-anchor="start" fill="#f5f6f6ff" font-family="Helvetica Neue, Helvetica, Arial, sans-serif"/><path class="divider" visibility="visible" d="M 0 -6 L 260 -6" stroke="#DFE1E3"/></g><g class="detail operator-memory text-[10px]" transform="translate(0, 80)"><text font-size="10" x="3" text-anchor="start" fill="#f5f6f6ff" font-family="Helvetica Neue, Helvetica, Arial, sans-serif">128 memory (bytes)</text></g><g class="detail estimated-rows text-[10px]" transform="translate(0, 94)"><text font-size="10" x="3" text-anchor="start" fill="#f5f6f6ff" font-family="Helvetica Neue, Helvetica, Arial, sans-serif">14 estimated rows</text></g><g class="detail db-hits text-[10px]" transform="translate(0, 108)"><text font-size="10" x="3" text-anchor="start" fill="#f5f6f6ff" font-family="Helvetica Neue, Helvetica, Arial, sans-serif">44 db hits</text></g><path class="cost" fill="#ffaa97ff" d="M 0 114 L 260 114 L 260 119.77677094812786 A 8 8 0 0 1 252 127.77677094812786 L 8 127.77677094812786 A 8 8 0 0 1 0 119.77677094812786 Z"/><rect class="b-outline" width="260" rx="8" ry="8" fill="none" stroke-width="1" style="stroke: rgb(94, 99, 106);" height="127.77677094812786"/></g><g class="operator" transform="translate(25.07549476623535, -1435.109375)"><rect class="background" width="260" height="159.9760104559972" rx="8" ry="8" fill="rgb(33, 35, 37)"/><g class="header" pointer-events="all"><path class="banner" d="M 252 0 A 8 8 0 0 1 260 8 L 260 18 A 8 8 0 0 1 260 26 L 0 26 A 8 8 0 0 1 0 18 L 0 8 A 8 8 0 0 1 8 0 Z" style="fill: rgb(204, 180, 255);"/><path class="expand" fill="#000000" d="M -5 -10 L 8.66 0 L -5 10 Z" transform="translate(13, 13) rotate(90) scale(0.5,0.5)"/><text class="title text-[12px] font-bold" x="26" y="17" fill="#000000" font-family="Helvetica Neue, Helvetica, Arial, sans-serif">NodeByLabelScan@projet</text></g><g class="detail identifiers text-[10px] font-mono" transform="translate(0, 40)"><text font-size="10" x="3" text-anchor="start" fill="#f5f6f6ff" font-family="Helvetica Neue, Helvetica, Arial, sans-serif">c</text></g><g class="detail padding text-[10px]" transform="translate(0, 54)"><text font-size="10" x="3" text-anchor="start" fill="#f5f6f6ff" font-family="Helvetica Neue, Helvetica, Arial, sans-serif"/><path class="divider" visibility="visible" d="M 0 -6 L 260 -6" stroke="#DFE1E3"/></g><g class="detail expression text-[10px] font-mono" transform="translate(0, 60)"><text font-size="10" x="3" text-anchor="start" fill="#f5f6f6ff" font-family="Helvetica Neue, Helvetica, Arial, sans-serif">c:Client</text></g><g class="detail padding text-[10px]" transform="translate(0, 74)"><text font-size="10" x="3" text-anchor="start" fill="#f5f6f6ff" font-family="Helvetica Neue, Helvetica, Arial, sans-serif"/><path class="divider" visibility="visible" d="M 0 -6 L 260 -6" stroke="#DFE1E3"/></g><g class="detail operator-memory text-[10px]" transform="translate(0, 80)"><text font-size="10" x="3" text-anchor="start" fill="#f5f6f6ff" font-family="Helvetica Neue, Helvetica, Arial, sans-serif">376 memory (bytes)</text></g><g class="detail pagecache-hits text-[10px]" transform="translate(0, 94)"><text font-size="10" x="3" text-anchor="start" fill="#f5f6f6ff" font-family="Helvetica Neue, Helvetica, Arial, sans-serif">26 pagecache hits</text></g><g class="detail pagecache-misses text-[10px]" transform="translate(0, 108)"><text font-size="10" x="3" text-anchor="start" fill="#f5f6f6ff" font-family="Helvetica Neue, Helvetica, Arial, sans-serif">0 pagecache misses</text></g><g class="detail estimated-rows text-[10px]" transform="translate(0, 122)"><text font-size="10" x="3" text-anchor="start" fill="#f5f6f6ff" font-family="Helvetica Neue, Helvetica, Arial, sans-serif">1 estimated rows</text></g><g class="detail db-hits text-[10px]" transform="translate(0, 136)"><text font-size="10" x="3" text-anchor="start" fill="#f5f6f6ff" font-family="Helvetica Neue, Helvetica, Arial, sans-serif">2 db hits</text></g><g class="detail time text-[10px]" transform="translate(0, 150)"><text font-size="10" x="3" text-anchor="start" fill="#f5f6f6ff" font-family="Helvetica Neue, Helvetica, Arial, sans-serif">5.396 time (ms)</text></g><path class="cost" fill="#ffaa97ff" d="M 258.9142973720947 156 A 8 8 0 0 1 252 159.9760104559972 L 8 159.9760104559972 A 8 8 0 0 1 1.085702627905274 156 Z"/><rect class="b-outline" width="260" rx="8" ry="8" fill="none" stroke-width="1" style="stroke: rgb(94, 99, 106);" height="159.9760104559972"/></g><g class="operator" transform="translate(334.0561218261719, -1047.3565673828125)"><rect class="background" width="260" height="136" rx="8" ry="8" fill="rgb(33, 35, 37)"/><g class="header" pointer-events="all"><path class="banner" d="M 252 0 A 8 8 0 0 1 260 8 L 260 18 A 8 8 0 0 1 260 26 L 0 26 A 8 8 0 0 1 0 18 L 0 8 A 8 8 0 0 1 8 0 Z" style="fill: rgb(117, 78, 200);"/><path class="expand" fill="#FFFFFF" d="M -5 -10 L 8.66 0 L -5 10 Z" transform="translate(13, 13) rotate(90) scale(0.5,0.5)"/><text class="title text-[12px] font-bold" x="26" y="17" fill="#FFFFFF" font-family="Helvetica Neue, Helvetica, Arial, sans-serif">Anti@projet</text></g><g class="detail identifiers text-[10px] font-mono" transform="translate(0, 40)"><text font-size="10" x="3" text-anchor="start" fill="#f5f6f6ff" font-family="Helvetica Neue, Helvetica, Arial, sans-serif">s, anon_0, invalid, p, c</text></g><g class="detail padding text-[10px]" transform="translate(0, 54)"><text font-size="10" x="3" text-anchor="start" fill="#f5f6f6ff" font-family="Helvetica Neue, Helvetica, Arial, sans-serif"/><path class="divider" visibility="visible" d="M 0 -6 L 260 -6" stroke="#DFE1E3"/></g><g class="detail operator-memory text-[10px]" transform="translate(0, 60)"><text font-size="10" x="3" text-anchor="start" fill="#f5f6f6ff" font-family="Helvetica Neue, Helvetica, Arial, sans-serif">1 096 memory (bytes)</text></g><g class="detail pagecache-hits text-[10px]" transform="translate(0, 74)"><text font-size="10" x="3" text-anchor="start" fill="#f5f6f6ff" font-family="Helvetica Neue, Helvetica, Arial, sans-serif">0 pagecache hits</text></g><g class="detail pagecache-misses text-[10px]" transform="translate(0, 88)"><text font-size="10" x="3" text-anchor="start" fill="#f5f6f6ff" font-family="Helvetica Neue, Helvetica, Arial, sans-serif">0 pagecache misses</text></g><g class="detail estimated-rows text-[10px]" transform="translate(0, 102)"><text font-size="10" x="3" text-anchor="start" fill="#f5f6f6ff" font-family="Helvetica Neue, Helvetica, Arial, sans-serif">5 estimated rows</text></g><g class="detail db-hits text-[10px]" transform="translate(0, 116)"><text font-size="10" x="3" text-anchor="start" fill="#f5f6f6ff" font-family="Helvetica Neue, Helvetica, Arial, sans-serif">0 db hits</text></g><g class="detail time text-[10px]" transform="translate(0, 130)"><text font-size="10" x="3" text-anchor="start" fill="#f5f6f6ff" font-family="Helvetica Neue, Helvetica, Arial, sans-serif">0.176 time (ms)</text></g><path class="cost" fill="#ffaa97ff" d="M 252 136 A 8 8 0 0 1 252 136 L 8 136 A 8 8 0 0 1 8 136 Z"/><rect class="b-outline" width="260" rx="8" ry="8" fill="none" stroke-width="1" style="stroke: rgb(94, 99, 106);" height="136"/></g><g class="operator" transform="translate(343.8596496582031, -1225.13330078125)"><rect class="background" width="260" height="114" rx="8" ry="8" fill="rgb(33, 35, 37)"/><g class="header" pointer-events="all"><path class="banner" d="M 252 0 A 8 8 0 0 1 260 8 L 260 18 A 8 8 0 0 1 260 26 L 0 26 A 8 8 0 0 1 0 18 L 0 8 A 8 8 0 0 1 8 0 Z" style="fill: rgb(160, 123, 236);"/><path class="expand" fill="#000000" d="M -5 -10 L 8.66 0 L -5 10 Z" transform="translate(13, 13) rotate(90) scale(0.5,0.5)"/><text class="title text-[12px] font-bold" x="26" y="17" fill="#000000" font-family="Helvetica Neue, Helvetica, Arial, sans-serif">Limit@projet</text></g><g class="detail identifiers text-[10px] font-mono" transform="translate(0, 40)"><text font-size="10" x="3" text-anchor="start" fill="#f5f6f6ff" font-family="Helvetica Neue, Helvetica, Arial, sans-serif">s, anon_0, invalid, p, c</text></g><g class="detail padding text-[10px]" transform="translate(0, 54)"><text font-size="10" x="3" text-anchor="start" fill="#f5f6f6ff" font-family="Helvetica Neue, Helvetica, Arial, sans-serif"/><path class="divider" visibility="visible" d="M 0 -6 L 260 -6" stroke="#DFE1E3"/></g><g class="detail expression text-[10px] font-mono" transform="translate(0, 60)"><text font-size="10" x="3" text-anchor="start" fill="#f5f6f6ff" font-family="Helvetica Neue, Helvetica, Arial, sans-serif">1</text></g><g class="detail padding text-[10px]" transform="translate(0, 74)"><text font-size="10" x="3" text-anchor="start" fill="#f5f6f6ff" font-family="Helvetica Neue, Helvetica, Arial, sans-serif"/><path class="divider" visibility="visible" d="M 0 -6 L 260 -6" stroke="#DFE1E3"/></g><g class="detail operator-memory text-[10px]" transform="translate(0, 80)"><text font-size="10" x="3" text-anchor="start" fill="#f5f6f6ff" font-family="Helvetica Neue, Helvetica, Arial, sans-serif">696 memory (bytes)</text></g><g class="detail estimated-rows text-[10px]" transform="translate(0, 94)"><text font-size="10" x="3" text-anchor="start" fill="#f5f6f6ff" font-family="Helvetica Neue, Helvetica, Arial, sans-serif">0 estimated rows</text></g><g class="detail db-hits text-[10px]" transform="translate(0, 108)"><text font-size="10" x="3" text-anchor="start" fill="#f5f6f6ff" font-family="Helvetica Neue, Helvetica, Arial, sans-serif">0 db hits</text></g><path class="cost" fill="#ffaa97ff" d="M 252 114 A 8 8 0 0 1 252 114 L 8 114 A 8 8 0 0 1 8 114 Z"/><rect class="b-outline" width="260" rx="8" ry="8" fill="none" stroke-width="1" style="stroke: rgb(94, 99, 106);" height="114"/></g><g class="operator" transform="translate(340.81500244140625, -1435.109375)"><rect class="background" width="260" height="100" rx="8" ry="8" fill="rgb(33, 35, 37)"/><g class="header" pointer-events="all"><path class="banner" d="M 252 0 A 8 8 0 0 1 260 8 L 260 18 A 8 8 0 0 1 260 26 L 0 26 A 8 8 0 0 1 0 18 L 0 8 A 8 8 0 0 1 8 0 Z" style="fill: rgb(75, 40, 148);"/><path class="expand" fill="#FFFFFF" d="M -5 -10 L 8.66 0 L -5 10 Z" transform="translate(13, 13) rotate(90) scale(0.5,0.5)"/><text class="title text-[12px] font-bold" x="26" y="17" fill="#FFFFFF" font-family="Helvetica Neue, Helvetica, Arial, sans-serif">Filter@projet</text></g><g class="detail identifiers text-[10px] font-mono" transform="translate(0, 40)"><text font-size="10" x="3" text-anchor="start" fill="#f5f6f6ff" font-family="Helvetica Neue, Helvetica, Arial, sans-serif">s, anon_0, invalid, p, c</text></g><g class="detail padding text-[10px]" transform="translate(0, 54)"><text font-size="10" x="3" text-anchor="start" fill="#f5f6f6ff" font-family="Helvetica Neue, Helvetica, Arial, sans-serif"/><path class="divider" visibility="visible" d="M 0 -6 L 260 -6" stroke="#DFE1E3"/></g><g class="detail expression text-[10px] font-mono" transform="translate(0, 60)"><text font-size="10" x="3" text-anchor="start" fill="#f5f6f6ff" font-family="Helvetica Neue, Helvetica, Arial, sans-serif">invalid = $autoint_7</text></g><g class="detail padding text-[10px]" transform="translate(0, 74)"><text font-size="10" x="3" text-anchor="start" fill="#f5f6f6ff" font-family="Helvetica Neue, Helvetica, Arial, sans-serif"/><path class="divider" visibility="visible" d="M 0 -6 L 260 -6" stroke="#DFE1E3"/></g><g class="detail estimated-rows text-[10px]" transform="translate(0, 80)"><text font-size="10" x="3" text-anchor="start" fill="#f5f6f6ff" font-family="Helvetica Neue, Helvetica, Arial, sans-serif">0 estimated rows</text></g><g class="detail db-hits text-[10px]" transform="translate(0, 94)"><text font-size="10" x="3" text-anchor="start" fill="#f5f6f6ff" font-family="Helvetica Neue, Helvetica, Arial, sans-serif">0 db hits</text></g><path class="cost" fill="#ffaa97ff" d="M 252 100 A 8 8 0 0 1 252 100 L 8 100 A 8 8 0 0 1 8 100 Z"/><rect class="b-outline" width="260" rx="8" ry="8" fill="none" stroke-width="1" style="stroke: rgb(94, 99, 106);" height="100"/></g><g class="operator" transform="translate(338.24932861328125, -1697.4066162109375)"><rect class="background" width="260" height="226.2972982105828" rx="8" ry="8" fill="rgb(33, 35, 37)"/><g class="header" pointer-events="all"><path class="banner" d="M 252 0 A 8 8 0 0 1 260 8 L 260 18 A 8 8 0 0 1 260 26 L 0 26 A 8 8 0 0 1 0 18 L 0 8 A 8 8 0 0 1 8 0 Z" style="fill: rgb(160, 123, 236);"/><path class="expand" fill="#000000" d="M -5 -10 L 8.66 0 L -5 10 Z" transform="translate(13, 13) rotate(90) scale(0.5,0.5)"/><text class="title text-[12px] font-bold" x="26" y="17" fill="#000000" font-family="Helvetica Neue, Helvetica, Arial, sans-serif">Projection@projet</text></g><g class="detail identifiers text-[10px] font-mono" transform="translate(0, 40)"><text font-size="10" x="3" text-anchor="start" fill="#f5f6f6ff" font-family="Helvetica Neue, Helvetica, Arial, sans-serif">s, anon_0, invalid, p, c</text></g><g class="detail padding text-[10px]" transform="translate(0, 54)"><text font-size="10" x="3" text-anchor="start" fill="#f5f6f6ff" font-family="Helvetica Neue, Helvetica, Arial, sans-serif"/><path class="divider" visibility="visible" d="M 0 -6 L 260 -6" stroke="#DFE1E3"/></g><g class="detail expression text-[10px] font-mono" transform="translate(0, 60)"><text font-size="10" x="3" text-anchor="start" fill="#f5f6f6ff" font-family="Helvetica Neue, Helvetica, Arial, sans-serif">(s)-[anon_0*]-&gt;(c) AS p, reduce(total = $</text></g><g class="detail expression text-[10px] font-mono" transform="translate(0, 74)"><text font-size="10" x="3" text-anchor="start" fill="#f5f6f6ff" font-family="Helvetica Neue, Helvetica, Arial, sans-serif">autoint_6, r IN relationships((s)-[anon_0*</text></g><g class="detail expression text-[10px] font-mono" transform="translate(0, 88)"><text font-size="10" x="3" text-anchor="start" fill="#f5f6f6ff" font-family="Helvetica Neue, Helvetica, Arial, sans-serif">]-&gt;(c)) | CASE
  WHEN ((total + coalesce(r</text></g><g class="detail expression text-[10px] font-mono" transform="translate(0, 102)"><text font-size="10" x="3" text-anchor="start" fill="#f5f6f6ff" font-family="Helvetica Neue, Helvetica, Arial, sans-serif">.manufacturing_cost, $autoint_0)) + </text></g><g class="detail expression text-[10px] font-mono" transform="translate(0, 116)"><text font-size="10" x="3" text-anchor="start" fill="#f5f6f6ff" font-family="Helvetica Neue, Helvetica, Arial, sans-serif">coalesce(r.shipping_cost, $autoint_1)) + </text></g><g class="detail expression text-[10px] font-mono" transform="translate(0, 130)"><text font-size="10" x="3" text-anchor="start" fill="#f5f6f6ff" font-family="Helvetica Neue, Helvetica, Arial, sans-serif">coalesce(r.route_cost, $autoint_2) &gt; $</text></g><g class="detail expression text-[10px] font-mono" transform="translate(0, 144)"><text font-size="10" x="3" text-anchor="start" fill="#f5f6f6ff" font-family="Helvetica Neue, Helvetica, Arial, sans-serif">autoint_3 THEN $autoint_4
  ELSE $autoint_</text></g><g class="detail expression text-[10px] font-mono" transform="translate(0, 158)"><text font-size="10" x="3" text-anchor="start" fill="#f5f6f6ff" font-family="Helvetica Neue, Helvetica, Arial, sans-serif">5
END) AS invalid</text></g><g class="detail padding text-[10px]" transform="translate(0, 172)"><text font-size="10" x="3" text-anchor="start" fill="#f5f6f6ff" font-family="Helvetica Neue, Helvetica, Arial, sans-serif"/><path class="divider" visibility="visible" d="M 0 -6 L 260 -6" stroke="#DFE1E3"/></g><g class="detail estimated-rows text-[10px]" transform="translate(0, 178)"><text font-size="10" x="3" text-anchor="start" fill="#f5f6f6ff" font-family="Helvetica Neue, Helvetica, Arial, sans-serif">4 estimated rows</text></g><path class="cost" fill="#ffaa97ff" d="M 0 198 L 260 198 L 260 218.2972982105828 A 8 8 0 0 1 252 226.2972982105828 L 8 226.2972982105828 A 8 8 0 0 1 0 218.2972982105828 Z"/><text class="cost text-[10px] font-bold" fill="#1a1b1dff" x="3" text-anchor="start" y="212" font-family="Helvetica Neue, Helvetica, Arial, sans-serif">2 486 db hits</text><rect class="b-outline" width="260" rx="8" ry="8" fill="none" stroke-width="1" style="stroke: rgb(94, 99, 106);" height="226.2972982105828"/></g><g class="operator" transform="translate(336.4219055175781, -1877.953857421875)"><rect class="background" width="260" height="144.54728984161576" rx="8" ry="8" fill="rgb(33, 35, 37)"/><g class="header" pointer-events="all"><path class="banner" d="M 252 0 A 8 8 0 0 1 260 8 L 260 18 A 8 8 0 0 1 260 26 L 0 26 A 8 8 0 0 1 0 18 L 0 8 A 8 8 0 0 1 8 0 Z" style="fill: rgb(44, 42, 52);"/><path class="expand" fill="#FFFFFF" d="M -5 -10 L 8.66 0 L -5 10 Z" transform="translate(13, 13) rotate(90) scale(0.5,0.5)"/><text class="title text-[12px] font-bold" x="26" y="17" fill="#FFFFFF" font-family="Helvetica Neue, Helvetica, Arial, sans-serif">VarLengthExpand(Into)@projet</text></g><g class="detail identifiers text-[10px] font-mono" transform="translate(0, 40)"><text font-size="10" x="3" text-anchor="start" fill="#f5f6f6ff" font-family="Helvetica Neue, Helvetica, Arial, sans-serif">s, anon_0, c</text></g><g class="detail padding text-[10px]" transform="translate(0, 54)"><text font-size="10" x="3" text-anchor="start" fill="#f5f6f6ff" font-family="Helvetica Neue, Helvetica, Arial, sans-serif"/><path class="divider" visibility="visible" d="M 0 -6 L 260 -6" stroke="#DFE1E3"/></g><g class="detail expression text-[10px] font-mono" transform="translate(0, 60)"><text font-size="10" x="3" text-anchor="start" fill="#f5f6f6ff" font-family="Helvetica Neue, Helvetica, Arial, sans-serif">(s)-[*..5]-&gt;(c)</text></g><g class="detail padding text-[10px]" transform="translate(0, 74)"><text font-size="10" x="3" text-anchor="start" fill="#f5f6f6ff" font-family="Helvetica Neue, Helvetica, Arial, sans-serif"/><path class="divider" visibility="visible" d="M 0 -6 L 260 -6" stroke="#DFE1E3"/></g><g class="detail operator-memory text-[10px]" transform="translate(0, 80)"><text font-size="10" x="3" text-anchor="start" fill="#f5f6f6ff" font-family="Helvetica Neue, Helvetica, Arial, sans-serif">128 memory (bytes)</text></g><g class="detail estimated-rows text-[10px]" transform="translate(0, 94)"><text font-size="10" x="3" text-anchor="start" fill="#f5f6f6ff" font-family="Helvetica Neue, Helvetica, Arial, sans-serif">4 estimated rows</text></g><path class="cost" fill="#ffaa97ff" d="M 0 113.99999999999999 L 260 113.99999999999999 L 260 136.54728984161576 A 8 8 0 0 1 252 144.54728984161576 L 8 144.54728984161576 A 8 8 0 0 1 0 136.54728984161576 Z"/><text class="cost text-[10px] font-bold" fill="#1a1b1dff" x="3" text-anchor="start" y="127.99999999999999" font-family="Helvetica Neue, Helvetica, Arial, sans-serif">4 630 db hits</text><rect class="b-outline" width="260" rx="8" ry="8" fill="none" stroke-width="1" style="stroke: rgb(94, 99, 106);" height="144.54728984161576"/></g><g class="operator" transform="translate(335.4626159667969, -2083.953857421875)"><rect class="background" width="260" height="156" rx="8" ry="8" fill="rgb(33, 35, 37)"/><g class="header" pointer-events="all"><path class="banner" d="M 252 0 A 8 8 0 0 1 260 8 L 260 18 A 8 8 0 0 1 260 26 L 0 26 A 8 8 0 0 1 0 18 L 0 8 A 8 8 0 0 1 8 0 Z" style="fill: rgb(204, 180, 255);"/><path class="expand" fill="#000000" d="M -5 -10 L 8.66 0 L -5 10 Z" transform="translate(13, 13) rotate(90) scale(0.5,0.5)"/><text class="title text-[12px] font-bold" x="26" y="17" fill="#000000" font-family="Helvetica Neue, Helvetica, Arial, sans-serif">Argument@projet</text></g><g class="detail identifiers text-[10px] font-mono" transform="translate(0, 40)"><text font-size="10" x="3" text-anchor="start" fill="#f5f6f6ff" font-family="Helvetica Neue, Helvetica, Arial, sans-serif">s, anon_0, c</text></g><g class="detail padding text-[10px]" transform="translate(0, 54)"><text font-size="10" x="3" text-anchor="start" fill="#f5f6f6ff" font-family="Helvetica Neue, Helvetica, Arial, sans-serif"/><path class="divider" visibility="visible" d="M 0 -6 L 260 -6" stroke="#DFE1E3"/></g><g class="detail expression text-[10px] font-mono" transform="translate(0, 60)"><text font-size="10" x="3" text-anchor="start" fill="#f5f6f6ff" font-family="Helvetica Neue, Helvetica, Arial, sans-serif">anon_0, s, c</text></g><g class="detail padding text-[10px]" transform="translate(0, 74)"><text font-size="10" x="3" text-anchor="start" fill="#f5f6f6ff" font-family="Helvetica Neue, Helvetica, Arial, sans-serif"/><path class="divider" visibility="visible" d="M 0 -6 L 260 -6" stroke="#DFE1E3"/></g><g class="detail operator-memory text-[10px]" transform="translate(0, 80)"><text font-size="10" x="3" text-anchor="start" fill="#f5f6f6ff" font-family="Helvetica Neue, Helvetica, Arial, sans-serif">4 016 memory (bytes)</text></g><g class="detail pagecache-hits text-[10px]" transform="translate(0, 94)"><text font-size="10" x="3" text-anchor="start" fill="#f5f6f6ff" font-family="Helvetica Neue, Helvetica, Arial, sans-serif">1 648 pagecache hits</text></g><g class="detail pagecache-misses text-[10px]" transform="translate(0, 108)"><text font-size="10" x="3" text-anchor="start" fill="#f5f6f6ff" font-family="Helvetica Neue, Helvetica, Arial, sans-serif">0 pagecache misses</text></g><g class="detail estimated-rows text-[10px]" transform="translate(0, 122)"><text font-size="10" x="3" text-anchor="start" fill="#f5f6f6ff" font-family="Helvetica Neue, Helvetica, Arial, sans-serif">5 estimated rows</text></g><g class="detail db-hits text-[10px]" transform="translate(0, 136)"><text font-size="10" x="3" text-anchor="start" fill="#f5f6f6ff" font-family="Helvetica Neue, Helvetica, Arial, sans-serif">0 db hits</text></g><g class="detail time text-[10px]" transform="translate(0, 150)"><text font-size="10" x="3" text-anchor="start" fill="#f5f6f6ff" font-family="Helvetica Neue, Helvetica, Arial, sans-serif">22.732 time (ms)</text></g><path class="cost" fill="#ffaa97ff" d="M 252 156 A 8 8 0 0 1 252 156 L 8 156 A 8 8 0 0 1 8 156 Z"/><rect class="b-outline" width="260" rx="8" ry="8" fill="none" stroke-width="1" style="stroke: rgb(94, 99, 106);" height="156"/></g></g></g><g><rect fill="#212325ff" width="441.72500000000014" height="38"/><text font-size="10" fill="#f5f6f6ff" font-family="Helvetica Neue, Helvetica, Arial, sans-serif" x="12" y="12">Cypher version: 5, Planner: COST, Runtime: PIPELINED</text><text font-size="10" fill="#f5f6f6ff" font-family="Helvetica Neue, Helvetica, Arial, sans-serif" x="12" y="30">Total database accesses: 7 324, Total allocated memory: 6 448 bytes, Total time: 159 ms</text><rect fill="none" stroke="#5e636aff" width="441.72500000000014" height="38" stroke-width="1"/></g></svg>